<svg width="64" height="21" viewBox="0 0 64 21" fill="none" xmlns="http://www.w3.org/2000/svg">
<path d="M0.999989 16.77C0.999989 16.77 -0.552011 20.937 1.03099 20.937H56.614L58.448 18.937H62.948L63.364 9.105L62.531 2.438L53.364 1.854L50.531 2.938L50.458 4.855L55.687 9.918L51.781 9.938C51.781 9.938 51.033 7.938 48.699 7.353C46.365 6.768 37.532 4.936 37.532 4.936L36.949 9.436C36.949 9.436 25.968 9.416 22.553 9.876C20.583 10.142 15.896 10.505 11.614 11.5C8.38599 12.25 5.82199 14.98 2.69899 16L0.999989 16.77Z" fill="#D22F27"/>
<path d="M6.22 19.376C6.22 19.376 0.436999 20.46 2 19.084C2 19.084 5.969 16.437 15.612 16.187L12.812 19.578L8.793 20.794L6.22 19.376V19.376ZM37.563 9.688L37.751 4.916L50.063 8.063L51.125 11H41.625L37.563 9.688ZM51.188 0.125L51 4H63L62.813 0L51.188 0.125Z" fill="#EA5A47"/>
</svg>
